PathFileType	4	(X/Y/Z)	Patient4_TMGait_0pt5_02_left_09.trc.trc
DataRate	CameraRate	NumFrames	NumMarkers	Units	OrigDataRate	OrigDataStartFrame	OrigNumFrames
77.777777777778	77.777777777778	4	33	mm	77.777777777778	124	       141
Frame#	Time	Sacral			L.Shoulder			Chest			R.Shoulder			Neck			R.ASIS			L.ASIS			R.Thigh.Superior			R.Thigh.Lateral			R.Thigh.Inferior			R.Patella			L.Thigh.Superior			L.Thigh.Lateral			L.Thigh.Inferior			L.Patella			L.Shank.Superior			L.Shank.Lateral			L.Shank.Inferior			R.Shank.Superior			R.Shank.Lateral			R.Shank.Inferior			R.Heel			R.Midfoot.Superior			R.Midfoot.Lateral			R.Toe			L.Heel			L.Midfoot.Lateral			L.Midfoot.Superior			L.Toe			L.Elbow			L.Wrist			R.Elbow			R.Wrist			
		X1	Y1	Z1	X2	Y2	Z2	X3	Y3	Z3	X4	Y4	Z4	X5	Y5	Z5	X6	Y6	Z6	X7	Y7	Z7	X8	Y8	Z8	X9	Y9	Z9	X10	Y10	Z10	X11	Y11	Z11	X12	Y12	Z12	X13	Y13	Z13	X14	Y14	Z14	X15	Y15	Z15	X16	Y16	Z16	X17	Y17	Z17	X18	Y18	Z18	X19	Y19	Z19	X20	Y20	Z20	X21	Y21	Z21	X22	Y22	Z22	X23	Y23	Z23	X24	Y24	Z24	X25	Y25	Z25	X26	Y26	Z26	X27	Y27	Z27	X28	Y28	Z28	X29	Y29	Z29	X30	Y30	Z30	X31	Y31	Z31	X32	Y32	Z32	X33	Y33	Z33	

124	12.681428571429	595.929765241185	1004.717711852586	515.799555485995	755.102621398269	1433.370930842992	327.652501397173	876.624803672766	1353.216730628787	469.848591665481	820.371047044523	1425.215784493590	654.968751979334	776.483083198192	1487.578695173333	479.528911364199	827.744553928074	933.296916085830	611.124791231960	790.985592104472	949.733716756524	337.999229655138	822.460640267760	721.644778000309	581.872582924525	718.948766148666	628.455713110292	644.113891689566	774.707766924151	564.018490188952	561.030643126177	755.263524872294	480.113910558336	563.584875981186	864.067496338095	764.416272170351	367.825954696380	806.594208772018	634.707165960279	297.352622278619	910.200563057562	575.288323092999	356.083151091038	936.192990736614	511.432068543976	355.601292442239	922.176561828487	439.954283478300	347.276635381532	859.279947707256	307.694793554432	300.081119393015	949.237938742814	212.487622049449	356.334287537035	718.089162710799	396.419402386181	568.713393559232	636.956904386201	298.384629994075	626.895906952825	669.280146411812	202.307300158819	560.171599618315	521.815453063852	42.948855973004	520.699287507838	692.865137921706	96.101783679927	562.252664221953	602.612328028343	36.011455111857	597.987689171696	811.082183240217	40.899016290509	594.847350965499	866.480887335296	37.512777781097	396.947097872897	940.631275670007	40.534545853049	316.772000984267	1013.979555039694	113.496824009197	338.371840001671	1146.293566023913	79.218352984249	312.708369362935	604.716962600921	1111.477470447816	231.184383593747	564.329093817452	854.177490130675	241.576597046039	982.425692423301	1132.529363022366	752.927620690904	1181.148552976123	1238.982013929244	644.777974599661	
125	12.694285714286	597.322320303299	1003.448616054117	513.780283973943	754.552716143266	1432.137506613186	324.856801486104	876.389823664905	1352.933923350195	467.305429879676	819.572510046988	1424.987614214457	652.326549357581	775.640640505171	1486.785497917005	476.608419220881	829.025964535408	932.515632180557	609.764070492855	792.922918311765	948.377192265713	336.629116755778	823.178825513978	720.484722805333	581.005832187680	718.649637849670	627.811834408379	642.925254356590	774.154680902671	562.790457655211	560.106000502960	753.925391749925	478.654301474642	562.441929091080	865.937778571148	762.539248518621	366.734987331979	806.840454668695	632.942840762897	297.355050750256	910.451184820155	573.510466606938	355.961207546145	935.431198871992	508.982642362559	356.007635095726	921.050762711835	437.206072119962	347.651812708274	856.628948222516	305.464704887786	301.065063830240	945.439846297058	209.457107661895	357.634805416786	715.732344772461	395.346218836467	567.757261960981	633.505440800108	298.396854180256	626.411654509057	664.393046677164	201.793587870468	559.773145674910	515.379063676784	43.185527034261	520.810656987666	686.482304602720	96.035677938827	562.169459604206	596.201646430211	35.993544766010	598.029778708958	804.714645781982	40.645462929148	594.889908625648	859.359379991825	37.062435365019	398.171028775647	933.778015202206	38.733807341055	318.081876087101	1009.145590208652	109.296510673748	340.648349427323	1140.761381908252	71.239793993712	315.111011757708	602.533166610756	1111.115619414719	229.616151158726	559.951755259383	854.188468555159	240.428510569855	982.628581156622	1132.864179954770	750.866349656801	1178.269262922069	1243.436058259885	641.569330894053	
126	12.707142857143	598.673944275530	1002.383626436200	511.674243450940	754.157079722805	1431.015337422684	321.966378640744	876.271743703687	1352.762999758239	464.711201811453	818.886414185658	1424.933056752854	649.618749291292	774.941524610412	1486.156171048420	473.567590783173	830.285082529779	931.808998022589	608.282164709891	794.846489568361	947.294011398637	335.173980450828	824.073792567433	719.437800980028	580.028650313255	718.631294569271	627.192366092989	641.555424727337	774.048598631148	561.622538954585	559.040833980519	753.090104543363	477.118151045241	561.183750210878	867.786434946758	760.989601924617	365.648073527327	807.380876374840	631.713202974216	297.077583947682	910.846156319464	572.202948900977	355.794408716963	934.650656995629	506.935792969938	356.299367487931	920.011810975156	434.869002173390	347.757472054860	854.206299990511	303.689496441181	301.482995211746	941.714317499385	206.856506739992	358.548703761546	713.750770353050	394.247764303397	566.688810572162	630.285981611509	298.525138070278	625.813226994887	659.670350090918	201.352548096070	559.355447522750	508.971098691981	43.626960829267	520.948786012453	680.209142856044	96.024790120482	562.131237238482	589.830116712752	36.056737474863	598.082561913719	798.396700407392	40.329710534868	594.943866944343	852.299688474814	36.820280844166	398.909217898524	927.045555288330	37.297737888540	318.965634248665	1004.207849377237	105.671962660652	342.543997008028	1135.194234528441	64.199770603632	317.297693962231	601.222608990144	1110.439129783770	227.882368968816	556.825824056481	853.836997740314	238.989177851008	982.126894432393	1132.755553833478	748.954713893389	1175.347070475979	1246.453644195108	638.658479689683	
127	12.720000000000	599.938904522054	1001.585679895236	509.499123295458	753.922191276726	1430.062378392605	319.023443093476	876.273450999565	1352.722015349073	462.090656712809	818.355495410304	1425.088439307768	646.867072515615	774.417102043475	1485.732956614476	470.449476279439	831.461713451834	931.231513935983	606.664333192177	796.680471090098	946.551605706442	333.609843015192	825.071243622729	718.562240403909	578.884006739770	718.893182063640	626.630081870241	640.001515720961	774.391886054599	560.567715009080	557.814763169451	752.798035920898	475.527547543996	559.844206363332	869.593571773375	759.911136108355	364.569908183289	808.270008208571	631.094522047767	296.506865183122	911.437156094431	571.450581147593	355.533648738176	933.915480002926	505.373589186187	356.418451181407	919.098329607026	433.018992879744	347.590334317209	852.048234781915	302.449953021930	301.320243663187	938.086393939437	204.773697810502	359.070236332658	712.162659066973	393.155257960018	565.533593735367	627.307502149876	298.813495586264	625.103728968664	655.136058122098	201.030307974915	558.935582485445	502.608071047870	44.359998036834	521.113762655268	674.083078226162	96.095567285927	562.159902503796	583.507776139045	36.252569434459	598.148459793333	792.132048968352	39.956082422508	595.006808306883	845.452206509213	36.762208871223	399.233657525217	920.531765598272	36.244656765410	319.453043939386	999.176022406694	102.767091654619	343.979398349469	1129.629763600282	58.434089420469	319.115667430034	600.813384632936	1109.492250942773	225.971591902399	555.017364740184	853.148654811703	237.253677582923	980.914303986341	1132.230161021178	747.173534314798	1172.458788503792	1248.027453214042	636.024755516756	
